<svg width="105" height="99" viewBox="0 0 105 99" fill="none" xmlns="http://www.w3.org/2000/svg">
<path fill-rule="evenodd" clip-rule="evenodd" d="M101 88C68.6933 88 36.3907 88 4.08196 88C3.77405 88.0061 4.42115 87.0664 4.5847 86.7797C8.29267 80.2774 12.14 73.5077 15.9458 66.8645C25.9956 49.3175 36.1908 31.4858 46.3082 13.8224C48.3444 10.2687 50.1726 6.6069 52.3411 3.25523C52.3805 3.19504 52.4259 2.8767 52.542 3.05219C68.6681 31.3256 85.1031 59.8306 101 88ZM37.6616 35.771C36.2089 38.3197 34.7078 40.8052 33.4388 43.3916C37.4708 38.6258 42.8748 35.2476 50.8319 34.4498C50.7652 27.3036 50.9661 19.885 50.7309 12.9082C46.4182 20.5033 41.9551 28.2413 37.6616 35.771ZM71.5422 43.3916C71.6512 43.4314 71.7835 43.5141 71.6441 43.3916C68.8134 38.3759 65.8404 33.157 62.8966 28.0474C60.178 23.3275 57.4977 18.2413 54.6529 13.7204C54.4904 13.4623 54.3773 12.7215 54.1502 13.1103C54.1502 20.2227 54.1502 27.3352 54.1502 34.4487C62.1153 35.2395 67.5071 38.6309 71.5422 43.3916ZM36.6562 44.8149C33.2924 48.4105 30.9251 53.4609 30.9251 59.8531C30.9251 66.1809 33.5176 71.1845 36.8571 74.6882C40.2501 78.248 44.5748 80.9273 50.8319 81.3936C50.7652 66.9645 50.9661 52.2651 50.7309 38.0065C44.8171 38.385 39.9704 41.2704 36.6562 44.8149ZM54.1502 38.2095C54.1502 52.6039 54.1502 67.0002 54.1502 81.3936C59.9034 81.0293 64.3504 78.5041 67.7222 75.0932C71.0324 71.7487 73.6662 67.2706 74.0559 61.3764C74.5697 53.6333 71.5291 48.0523 67.8221 44.3068C64.5078 40.9562 60.1629 38.5085 54.35 38.0065C54.349 37.7678 54.0754 38.0432 54.1502 38.2095ZM31.4279 73.1649C29.5784 70.1836 28.2125 67.0911 27.7078 63.0027C27.3221 59.8776 27.5402 56.2484 28.2105 53.5527C28.4306 52.6661 28.9909 51.6683 28.9142 51.1142C28.9182 51.1479 28.9101 51.1826 28.9142 51.2163C25.7513 56.6769 22.4461 62.2906 19.2621 67.8808C16.2911 73.0965 13.1525 78.4541 10.3137 83.53C10.1159 83.8841 9.76455 84.4442 10.0119 84.5452C22.5794 84.4779 35.4145 84.6809 47.8144 84.4432C40.248 82.9648 34.9561 78.851 31.4279 73.1649ZM73.4532 73.5699C69.7755 79.1601 64.104 83.0413 57.1656 84.5442C69.8018 84.5442 82.4339 84.5442 95.0691 84.5442C92.1213 79.0173 88.8474 73.5108 85.7189 67.8797C82.6005 62.2671 79.2246 56.732 76.0679 51.2152C78.9743 59.3113 77.0108 68.1634 73.4532 73.5699Z" fill="#C19932"/>
</svg>
