<svg width="54" height="60" viewBox="0 0 54 60" fill="none" xmlns="http://www.w3.org/2000/svg">
<path d="M36.0227 28.98C32.7227 28.98 29.9527 31.28 29.2227 34.36C28.6027 34.12 27.8627 33.98 27.0227 33.98C26.1827 33.98 25.4427 34.12 24.8227 34.36C24.0927 31.28 21.3227 28.98 18.0227 28.98C14.1627 28.98 11.0227 32.12 11.0227 35.98C11.0227 39.84 14.1627 42.98 18.0227 42.98C21.6527 42.98 24.6527 40.2 24.9927 36.65C24.9927 36.62 25.0127 36.6 25.0127 36.56C25.1127 36.39 25.8227 35.98 27.0327 35.98C28.2427 35.98 28.9527 36.39 29.0327 36.48C29.0327 36.54 29.0527 36.59 29.0627 36.65C29.4027 40.2 32.3927 42.98 36.0327 42.98C39.8927 42.98 43.0327 39.84 43.0327 35.98C43.0327 32.12 39.8827 28.98 36.0227 28.98ZM18.0227 40.98C15.2627 40.98 13.0227 38.74 13.0227 35.98C13.0227 33.22 15.2627 30.98 18.0227 30.98C20.7827 30.98 23.0227 33.22 23.0227 35.98C23.0227 38.74 20.7827 40.98 18.0227 40.98ZM36.0227 40.98C33.2627 40.98 31.0227 38.74 31.0227 35.98C31.0227 33.22 33.2627 30.98 36.0227 30.98C38.7827 30.98 41.0227 33.22 41.0227 35.98C41.0227 38.74 38.7827 40.98 36.0227 40.98Z" fill="#C19932"/>
<path d="M52.7928 18.84C52.2328 14.76 50.4727 11.24 47.9627 9.17C47.3227 8.64 46.8428 7.8 46.5628 6.69C45.7328 3.48 42.7127 1.24 38.8727 0.98C36.7227 0.83 34.8828 1.49 32.8428 2.31C32.7428 2.35 32.5828 2.32 32.5628 2.26C32.0228 0.8 30.6428 0 28.6828 0C25.6628 0 21.7828 1.86 18.5528 4.81C18.5628 3.92 18.7428 3.12 19.2528 2.87L20.9428 2.03L19.3028 1.11C19.2328 1.07 17.4628 0.09 15.1428 0.09C13.2028 0.09 11.4628 0.75 9.97275 2.06C8.73275 3.14 7.83275 4.66 7.37275 6.44C7.27275 6.79 7.17275 7.18 7.08275 7.57C7.04275 7.76 6.86275 7.81 6.78275 7.81C6.68275 7.81 6.62275 7.76 6.56275 7.68C6.10275 7.12 5.42275 6.8 4.71275 6.8C3.78275 6.8 2.97275 7.33 2.60275 8.18C0.632752 12.75 -3.04725 24.37 4.80275 34.32V50.98C4.80275 53.74 7.04275 55.98 9.80275 55.98H12.8028V57.67C12.8028 58.94 13.8328 59.98 15.1028 59.98H38.5028C39.7728 59.98 40.8128 58.95 40.8128 57.67V55.98H43.8128C46.5728 55.98 48.8128 53.74 48.8128 50.98V34.37C49.9728 33.06 54.0328 27.76 52.7928 18.84ZM4.44275 8.97C4.50275 8.83 4.62275 8.8 4.71275 8.8C4.78275 8.8 4.90275 8.82 4.99275 8.93L5.05275 9C5.48275 9.51 6.11275 9.81 6.77275 9.81C7.86275 9.81 8.79275 9.07 9.03275 8.01C9.12275 7.65 9.21275 7.28 9.30275 6.93C9.66275 5.54 10.3428 4.37 11.2828 3.56C12.4028 2.58 13.6928 2.09 15.1428 2.09C15.8828 2.09 16.5528 2.22 17.0828 2.37C16.5828 3.32 16.4428 4.65 16.6628 6.27C16.7628 6.98 17.3528 7.49 18.0728 7.49C18.4628 7.49 18.8228 7.34 19.1028 7.06C22.5428 3.57 26.3928 2 28.6828 2C29.7728 2 30.4528 2.33 30.6928 2.97C31.0028 3.8 31.8027 4.34 32.7327 4.34C33.0227 4.34 33.3128 4.29 33.5828 4.18C35.4628 3.43 37.0027 2.87 38.7327 2.99C41.1027 3.15 43.8927 4.34 44.6227 7.21C45.0127 8.74 45.7127 9.93 46.6927 10.73C47.6927 11.56 50.1028 14.03 50.8128 19.13C51.5828 24.68 50.1127 28.65 48.8027 30.94V18.98V17.23L47.2928 18.11C45.5328 19.14 43.9228 19.67 42.5028 19.67C39.5528 19.67 38.1427 17.4 37.8027 16.75C37.7527 16.66 37.7228 16.6 37.7228 16.58L37.5028 16.07L36.9528 15.99C35.5828 15.78 34.2328 15.67 32.9528 15.67C26.8928 15.67 23.4328 18.02 21.9128 19.4C21.6928 19.6 21.5228 19.78 21.3828 19.92C15.2928 19.26 12.2128 17.64 11.5228 17.24C11.4228 17.18 11.3728 17.15 11.3728 17.15L10.6328 16.64L10.0428 17.32C9.65275 17.77 9.25275 18.17 8.84275 18.52C7.62275 19.57 6.38275 20.17 5.45275 20.51L4.80275 20.76V21.46V30.83C-0.0972476 22.63 2.36275 13.79 4.44275 8.97ZM38.8027 57.67C38.8027 57.84 38.6628 57.98 38.4928 57.98H15.1128C14.9428 57.98 14.8128 57.84 14.8128 57.67V55.98H38.8128V57.67H38.8027ZM46.8027 50.98C46.8027 52.63 45.4527 53.98 43.8027 53.98H40.8027H12.8028H9.80275C8.15275 53.98 6.80275 52.63 6.80275 50.98V36.79V22.13C8.03275 21.6 9.57275 20.71 11.0028 19.25C12.4128 19.98 15.8128 21.41 21.7128 21.98L22.2728 22.03L22.6028 21.59C22.6728 21.5 23.6228 20.28 25.7428 19.22C27.3928 18.4 29.7527 17.68 32.9627 17.68C33.9827 17.68 35.0528 17.76 36.1528 17.9C36.1928 17.97 36.2428 18.05 36.2928 18.13C37.0628 19.36 38.9728 21.67 42.5028 21.67C43.8528 21.67 45.2927 21.32 46.8027 20.63V36.35V50.98V50.98Z" fill="#C19932"/>
<path d="M30.0228 24.9799H33.0228L31.2228 27.3799C30.8928 27.8199 30.9828 28.4499 31.4228 28.7799C31.6028 28.9099 31.8128 28.9799 32.0228 28.9799C32.3228 28.9799 32.6228 28.8399 32.8228 28.5799L35.8228 24.5799C36.0528 24.2799 36.0828 23.8699 35.9128 23.5299C35.7428 23.1899 35.3928 22.9799 35.0228 22.9799H32.0228L33.8228 20.5799C34.1528 20.1399 34.0628 19.5099 33.6228 19.1799C33.1828 18.8499 32.5528 18.9399 32.2228 19.3799L29.2228 23.3799C28.9928 23.6799 28.9628 24.0899 29.1328 24.4299C29.3028 24.7699 29.6428 24.9799 30.0228 24.9799Z" fill="#C19932"/>
<path d="M34.0227 46.98H20.0227C19.4727 46.98 19.0227 47.43 19.0227 47.98C19.0227 48.53 19.4727 48.98 20.0227 48.98H34.0227C34.5727 48.98 35.0227 48.53 35.0227 47.98C35.0227 47.43 34.5727 46.98 34.0227 46.98Z" fill="#C19932"/>
</svg>
